/* XPM */
static char * Xmonad_Logo_xpm[] = {
"18 20 3 1",
" 	c None",
".	c #FD4D5E",
"+	c #FFFFFF",
"                  ",
"                  ",
"  ..              ",
"  ....      +++   ",
"  .....     +++   ",
"   ....     ++    ",
"    ....          ",
"    .....         ",
"     ....         ",
"      ....        ",
"      .....       ",
"      ......      ",
"     .......      ",
"    .........     ",
"    .... .....    ",
"   ....   .....   ",
"  ....     ....   ",
"  ....      ....  ",
" ....       ....  ",
" ...         ...  "};
